<svg width="9" height="16" viewBox="0 0 9 16" fill="none" xmlns="http://www.w3.org/2000/svg">
    <path d="M7.74349 15.6677C7.84891 15.5615 7.93258 15.4351 7.98968 15.2958C8.04677 15.1566 8.07617 15.0072 8.07617 14.8564C8.07617 14.7055 8.04677 14.5562 7.98968 14.4169C7.93258 14.2776 7.84891 14.1513 7.74349 14.045L2.59246 8.81134C2.48704 8.7051 2.40338 8.57872 2.34628 8.43947C2.28918 8.30021 2.25978 8.15085 2.25978 8C2.25978 7.84915 2.28918 7.69978 2.34628 7.56053C2.40338 7.42128 2.48704 7.29489 2.59246 7.18866L7.74349 1.95497C7.84891 1.84874 7.93258 1.72235 7.98968 1.5831C8.04677 1.44385 8.07617 1.29449 8.07617 1.14363C8.07617 0.99278 8.04677 0.843419 7.98968 0.704167C7.93258 0.564915 7.84891 0.438528 7.74349 0.332297C7.53277 0.119462 7.24772 -3.67939e-08 6.95059 -4.999e-08C6.65347 -6.31861e-08 6.36842 0.119462 6.15769 0.332296L0.995414 5.57742C0.363566 6.2202 0.00866383 7.09153 0.00866379 8C0.00866375 8.90847 0.363566 9.7798 0.995413 10.4226L6.15769 15.6677C6.36842 15.8805 6.65347 16 6.95059 16C7.24772 16 7.53277 15.8805 7.74349 15.6677Z"
          fill="white"/>
</svg>