<svg width="9" height="16" viewBox="0 0 9 16" fill="none" xmlns="http://www.w3.org/2000/svg">
    <path d="M7.73483 15.6677C7.84024 15.5615 7.92391 15.4351 7.98101 15.2958C8.03811 15.1566 8.0675 15.0072 8.0675 14.8564C8.0675 14.7055 8.03811 14.5562 7.98101 14.4169C7.92391 14.2776 7.84024 14.1513 7.73483 14.045L2.58379 8.81134C2.47838 8.7051 2.39471 8.57872 2.33761 8.43947C2.28051 8.30021 2.25111 8.15085 2.25111 8C2.25111 7.84915 2.28051 7.69978 2.33761 7.56053C2.39471 7.42128 2.47838 7.29489 2.58379 7.18866L7.73483 1.95497C7.84024 1.84874 7.92391 1.72235 7.98101 1.5831C8.03811 1.44385 8.0675 1.29449 8.0675 1.14363C8.0675 0.99278 8.03811 0.843419 7.98101 0.704167C7.92391 0.564915 7.84024 0.438528 7.73483 0.332297C7.5241 0.119462 7.23905 -3.67939e-08 6.94193 -4.999e-08C6.6448 -6.31861e-08 6.35975 0.119462 6.14903 0.332296L0.986747 5.57742C0.354899 6.2202 -3.16611e-06 7.09153 -3.20519e-06 8C-3.24428e-06 8.90847 0.354899 9.7798 0.986746 10.4226L6.14903 15.6677C6.35975 15.8805 6.6448 16 6.94193 16C7.23905 16 7.5241 15.8805 7.73483 15.6677Z"
          fill="#0C485E"/>
</svg>
