<svg width="25" height="24" viewBox="0 0 25 24" fill="none" xmlns="http://www.w3.org/2000/svg">
<g clip-path="url(#clip0_3693_1282)">
<path d="M11.5 7H10.5C9.39702 7 8.50002 7.897 8.50002 9V17C8.50002 17.553 8.94802 18 9.50002 18C10.052 18 10.5 17.553 10.5 17V14H11.5C11.644 14 11.781 13.974 11.92 13.958L12.741 17.243C12.855 17.698 13.262 18.001 13.71 18.001C14.558 18.001 14.815 17.294 14.681 16.759L13.776 13.138C14.519 12.496 15 11.558 15 10.502C15 8.572 13.43 7.002 11.5 7.002V7ZM11.5 12H10.5V9H11.5C12.327 9 13 9.673 13 10.5C13 11.327 12.327 12 11.5 12ZM2.49902 10.5V14.5C2.49902 15.327 3.17202 16 3.99902 16C4.70902 16 5.32702 15.495 5.46902 14.801C5.57902 14.26 6.10802 13.91 6.64802 14.021C7.19002 14.13 7.53902 14.659 7.42902 15.2C7.09902 16.823 5.65702 18.001 3.99902 18.001C2.06902 18 0.499023 16.43 0.499023 14.5V10.5C0.499023 8.571 2.06802 7.001 3.99702 7C5.65402 7 7.09802 8.178 7.42802 9.801C7.53802 10.342 7.18902 10.87 6.64702 10.98C6.10502 11.089 5.57802 10.74 5.46802 10.199C5.32602 9.504 4.70902 9 3.99802 9C3.17102 9 2.49902 9.673 2.49902 10.5ZM24.516 16.918C24.561 17.468 24.21 18 23.518 18C23.003 18 22.565 17.604 22.522 17.082L22.026 11.085L21.035 13.394C20.877 13.761 20.516 13.999 20.117 13.999C19.717 13.999 19.356 13.761 19.198 13.394L18.224 11.127L17.766 17.077C17.723 17.628 17.237 18.031 16.692 17.997C16.141 17.955 15.729 17.474 15.772 16.923L16.442 8.22C16.488 7.613 16.941 7.119 17.542 7.019C18.143 6.921 18.731 7.241 18.971 7.8L20.117 10.466L21.253 7.819C21.495 7.257 22.084 6.932 22.688 7.032C23.292 7.131 23.748 7.624 23.798 8.234L24.516 16.919V16.918Z" fill="#FFFFFF"/>
</g>
<defs>
<clipPath id="clip0_3693_1282">
<rect width="24" height="24" fill="white" transform="translate(0.5)"/>
</clipPath>
</defs>
</svg>
