<svg width="25" height="25" viewBox="0 0 25 25" fill="none" xmlns="http://www.w3.org/2000/svg">
    <g id="fi-rr-trash" clip-path="url(#clip0_387_5467)">
        <path id="Vector"
              d="M21.5 4.99219H18.4C18.1679 3.8636 17.5538 2.84953 16.6613 2.12091C15.7687 1.39228 14.6522 0.993642 13.5 0.992188L11.5 0.992188C10.3478 0.993642 9.23132 1.39228 8.33875 2.12091C7.44618 2.84953 6.8321 3.8636 6.6 4.99219H3.5C3.23478 4.99219 2.98043 5.09754 2.79289 5.28508C2.60536 5.47262 2.5 5.72697 2.5 5.99219C2.5 6.2574 2.60536 6.51176 2.79289 6.69929C2.98043 6.88683 3.23478 6.99219 3.5 6.99219H4.5V19.9922C4.50159 21.3178 5.02888 22.5886 5.96622 23.526C6.90356 24.4633 8.17441 24.9906 9.5 24.9922H15.5C16.8256 24.9906 18.0964 24.4633 19.0338 23.526C19.9711 22.5886 20.4984 21.3178 20.5 19.9922V6.99219H21.5C21.7652 6.99219 22.0196 6.88683 22.2071 6.69929C22.3946 6.51176 22.5 6.2574 22.5 5.99219C22.5 5.72697 22.3946 5.47262 22.2071 5.28508C22.0196 5.09754 21.7652 4.99219 21.5 4.99219ZM11.5 2.99219H13.5C14.1203 2.99294 14.7251 3.18556 15.2316 3.54363C15.7381 3.9017 16.1214 4.40768 16.329 4.99219H8.671C8.87858 4.40768 9.2619 3.9017 9.76839 3.54363C10.2749 3.18556 10.8797 2.99294 11.5 2.99219ZM18.5 19.9922C18.5 20.7878 18.1839 21.5509 17.6213 22.1135C17.0587 22.6761 16.2956 22.9922 15.5 22.9922H9.5C8.70435 22.9922 7.94129 22.6761 7.37868 22.1135C6.81607 21.5509 6.5 20.7878 6.5 19.9922V6.99219H18.5V19.9922Z"
              fill="#0C485E"/>
        <path id="Vector_2"
              d="M10.5 18.9922C10.7652 18.9922 11.0196 18.8868 11.2071 18.6993C11.3946 18.5117 11.5 18.2574 11.5 17.9922V11.9922C11.5 11.727 11.3946 11.4726 11.2071 11.2851C11.0196 11.0975 10.7652 10.9922 10.5 10.9922C10.2348 10.9922 9.98043 11.0975 9.79289 11.2851C9.60536 11.4726 9.5 11.727 9.5 11.9922V17.9922C9.5 18.2574 9.60536 18.5117 9.79289 18.6993C9.98043 18.8868 10.2348 18.9922 10.5 18.9922Z"
              fill="#374957"/>
        <path id="Vector_3"
              d="M14.5 18.9922C14.7652 18.9922 15.0196 18.8868 15.2071 18.6993C15.3947 18.5117 15.5 18.2574 15.5 17.9922V11.9922C15.5 11.727 15.3947 11.4726 15.2071 11.2851C15.0196 11.0975 14.7652 10.9922 14.5 10.9922C14.2348 10.9922 13.9804 11.0975 13.7929 11.2851C13.6054 11.4726 13.5 11.727 13.5 11.9922V17.9922C13.5 18.2574 13.6054 18.5117 13.7929 18.6993C13.9804 18.8868 14.2348 18.9922 14.5 18.9922Z"
              fill="#374957"/>
    </g>
    <defs>
        <clipPath id="clip0_387_5467">
            <rect width="24" height="24" fill="white" transform="translate(0.5 0.992188)"/>
        </clipPath>
    </defs>
</svg>
