<svg width="172" height="35" viewBox="0 0 172 35" fill="none" xmlns="http://www.w3.org/2000/svg">
<g clip-path="url(#clip0_3609_2337)">
<rect width="172" height="34.6543" transform="translate(0 0.172852)" fill="white"/>
<mask id="mask0_3609_2337" style="mask-type:luminance" maskUnits="userSpaceOnUse" x="6" y="0" width="160" height="35">
<path d="M166 0.172852H6V34.8272H166V0.172852Z" fill="white"/>
</mask>
<g mask="url(#mask0_3609_2337)">
<path d="M56.4694 26.814C55.3872 26.8399 54.3194 26.5631 53.3872 26.0149C52.4551 25.4666 51.6959 24.669 51.196 23.7124C50.6659 22.7035 50.3971 21.5788 50.4138 20.44C50.4044 19.5826 50.5532 18.7307 50.8528 17.9267C51.137 17.1829 51.5619 16.5003 52.1043 15.916C52.6443 15.3314 53.3008 14.8657 54.0321 14.5487C54.8101 14.2108 55.6509 14.0395 56.4997 14.0461C57.4917 14.0228 58.4736 14.2475 59.3559 14.6995C60.1646 15.1397 60.8565 15.7652 61.3745 16.5243L60.8143 17.1174V8.95898H63.5343V26.4521H61.1172V23.5617L61.5107 24.1649C61.0529 24.9456 60.4035 25.5976 59.6234 26.06C58.6648 26.6032 57.5712 26.8647 56.4694 26.814ZM56.9741 24.4464C57.6796 24.4591 58.3761 24.2856 58.9926 23.9437C59.5709 23.617 60.0449 23.1344 60.3602 22.5513C60.708 21.8989 60.8817 21.1685 60.8648 20.4301C60.8817 19.6884 60.7079 18.9547 60.3602 18.2987C60.0459 17.7175 59.5714 17.2379 58.9926 16.9163C58.3761 16.5742 57.6796 16.4008 56.9741 16.4137C56.2784 16.4033 55.5923 16.5767 54.9858 16.9163C54.4056 17.2406 53.9309 17.7238 53.6183 18.3087C53.2705 18.9647 53.0967 19.6984 53.1136 20.44C53.0967 21.1785 53.2704 21.909 53.6183 22.5614C53.9348 23.1451 54.4107 23.6278 54.9908 23.9538C55.5972 24.288 56.2811 24.4578 56.9741 24.4464Z" fill="#0F495F"/>
<path d="M68.4667 12.2775C68.0076 12.2848 67.5626 12.1197 67.2202 11.815C67.0543 11.6595 66.9221 11.4718 66.8318 11.2634C66.7414 11.055 66.6948 10.8305 66.6948 10.6036C66.6948 10.3766 66.7414 10.1521 66.8318 9.94378C66.9221 9.73545 67.0543 9.54774 67.2202 9.39211C67.5639 9.09067 68.0062 8.92432 68.4641 8.92432C68.9221 8.92432 69.3643 9.09067 69.7081 9.39211C69.874 9.54774 70.0062 9.73545 70.0965 9.94378C70.1869 10.1521 70.2335 10.3766 70.2335 10.6036C70.2335 10.8305 70.1869 11.055 70.0965 11.2634C70.0062 11.4718 69.874 11.6595 69.7081 11.815C69.3675 12.1194 68.9242 12.2846 68.4667 12.2775ZM67.1243 26.4529V14.4289H69.8039V26.4529H67.1243Z" fill="#0F495F"/>
<path d="M78.6569 31.9181C77.8573 31.9193 77.0594 31.8419 76.275 31.6868C75.4964 31.5342 74.7437 31.2719 74.0395 30.9077L74.7106 28.7009C75.3125 28.9945 75.948 29.2138 76.603 29.3545C77.235 29.4895 77.8794 29.5586 78.5257 29.5606C79.9236 29.5606 80.9883 29.2338 81.72 28.5552C82.0847 28.2214 82.3717 27.8123 82.5608 27.3564C82.75 26.9005 82.8367 26.409 82.8151 25.9161V23.2972L83.1835 23.8652C82.7861 24.6698 82.1663 25.3447 81.3971 25.8106C80.4979 26.3311 79.4692 26.5873 78.4298 26.5495C77.3058 26.5743 76.1967 26.2891 75.2254 25.7251C74.3251 25.1865 73.5917 24.4106 73.1059 23.4832C72.5907 22.5038 72.3289 21.4119 72.3439 20.3063C72.3358 19.4669 72.4847 18.6333 72.783 17.8482C73.063 17.111 73.4866 16.4363 74.0294 15.8627C74.5707 15.2896 75.2277 14.8373 75.9571 14.5356C76.7456 14.2115 77.592 14.0507 78.445 14.0631C79.4835 14.0262 80.5116 14.2805 81.4122 14.797C82.1775 15.2587 82.7967 15.9259 83.1986 16.7222L82.8302 17.2953V14.415H85.3534V25.333C85.3534 27.4141 84.7916 29.0327 83.6679 30.1888C82.5443 31.345 80.8739 31.9215 78.6569 31.9181ZM78.8285 24.2171C79.5208 24.2255 80.203 24.0522 80.8066 23.7145C81.3764 23.3974 81.8451 22.9271 82.159 22.3572C82.5019 21.7229 82.6757 21.0115 82.6637 20.2912C82.6749 19.5678 82.5012 18.8534 82.159 18.2152C81.8484 17.6403 81.3792 17.1658 80.8066 16.8479C80.2023 16.5121 79.5205 16.339 78.8285 16.3452C78.1363 16.3371 77.4541 16.5104 76.8503 16.8479C76.2783 17.1648 75.8104 17.6396 75.503 18.2152C75.1585 18.8525 74.9846 19.5675 74.9983 20.2912C74.9839 21.0118 75.1578 21.7238 75.503 22.3572C75.8136 22.9279 76.2809 23.3987 76.8503 23.7145C77.4532 24.0539 78.136 24.2274 78.8285 24.2171Z" fill="#0F495F"/>
<path d="M87.4839 16.6354V14.4288H90.4817V16.6354H87.4839ZM94.0191 26.8147C93.5036 26.841 92.989 26.7657 92.5024 26.5933C92.0166 26.4208 91.5704 26.1543 91.1877 25.8093C90.4817 25.139 90.1279 24.0985 90.1279 22.6876V10.915H92.8075V14.4338H96.1584V16.6405H92.8075V22.0895C92.7523 22.7241 92.932 23.3571 93.3123 23.8689C93.4904 24.0442 93.7048 24.1796 93.9391 24.2663C94.1741 24.353 94.4248 24.3888 94.6747 24.3716C94.9452 24.3714 95.2149 24.3394 95.4772 24.2761C95.7147 24.216 95.9448 24.13 96.1634 24.0198L96.6376 26.1813C96.2541 26.3705 95.8516 26.5188 95.4368 26.6236C94.9741 26.7473 94.4982 26.8114 94.0191 26.8147Z" fill="#0F495F"/>
<path d="M104.726 26.8127C103.535 26.8378 102.356 26.5647 101.299 26.0185C100.336 25.5112 99.5395 24.7403 99.0026 23.7966C98.4352 22.78 98.1498 21.6316 98.1754 20.4689C98.1746 19.5931 98.3461 18.7257 98.6793 17.9153C98.982 17.1533 99.4373 16.4606 100.017 15.8795C100.594 15.3055 101.281 14.8511 102.035 14.5424C102.838 14.2232 103.695 14.0627 104.559 14.0699C105.476 14.0536 106.387 14.2336 107.229 14.5977C107.983 14.9315 108.649 15.4378 109.171 16.0755C109.697 16.7166 110.076 17.4647 110.281 18.2672C110.496 19.1682 110.531 20.1026 110.382 21.0168H100.749C100.709 21.6722 100.87 22.324 101.21 22.8861C101.551 23.4481 102.055 23.8936 102.656 24.1635C103.348 24.4754 104.102 24.6282 104.862 24.611C105.533 24.6134 106.201 24.5099 106.839 24.3043C107.47 24.1025 108.059 23.7911 108.58 23.3844L109.615 25.3046C109.187 25.6418 108.711 25.9145 108.202 26.114C107.643 26.3357 107.063 26.5041 106.471 26.6166C105.897 26.7369 105.312 26.8025 104.726 26.8127ZM100.91 19.0665H107.748C107.758 18.6689 107.686 18.2736 107.535 17.9051C107.385 17.5366 107.16 17.203 106.875 16.9251C106.216 16.3723 105.368 16.0948 104.509 16.1509C103.619 16.117 102.745 16.3905 102.035 16.9251C101.709 17.1854 101.441 17.51 101.248 17.8786C101.055 18.2471 100.939 18.6515 100.91 19.0665Z" fill="#0F495F"/>
<path d="M118.718 26.813C117.537 26.8343 116.37 26.5484 115.333 25.9836C114.36 25.4506 113.551 24.6655 112.991 23.7115C112.501 22.8285 112.215 21.8475 112.155 20.8403C112.095 19.8331 112.261 18.8253 112.643 17.8905C112.972 17.132 113.453 16.4478 114.056 15.8798C114.679 15.2976 115.411 14.8433 116.21 14.5428C117.07 14.2205 117.982 14.0602 118.901 14.0703C119.666 14.063 120.428 14.1715 121.161 14.3919C121.856 14.6103 122.505 14.9508 123.079 15.3973L121.787 17.4382C121.414 17.1065 120.976 16.8549 120.5 16.6992C120.012 16.5344 119.501 16.4512 118.986 16.4529C118.23 16.4343 117.481 16.5964 116.801 16.9254C116.2 17.2221 115.699 17.689 115.362 18.2675C115.01 18.9306 114.835 19.6738 114.859 20.4241C114.827 20.9653 114.909 21.5071 115.099 22.0151C115.29 22.523 115.584 22.986 115.964 23.3747C116.37 23.746 116.848 24.0321 117.368 24.216C117.889 24.3999 118.44 24.4779 118.991 24.4454C119.576 24.4486 120.156 24.3358 120.697 24.1136C121.199 23.9115 121.656 23.6106 122.04 23.2289L123.316 25.2396C122.665 25.7282 121.941 26.1131 121.171 26.3807C120.385 26.6649 119.555 26.8112 118.718 26.813Z" fill="#0F495F"/>
<path d="M124.169 16.6354V14.4288H127.171V16.6354H124.169ZM130.729 26.8146C130.214 26.8415 129.699 26.7665 129.213 26.594C128.727 26.4215 128.28 26.1548 127.898 25.8093C127.192 25.139 126.838 24.0985 126.838 22.6876V10.915H129.518V14.4338H132.874V16.6405H129.518V22.0894C129.46 22.7243 129.64 23.3581 130.023 23.8689C130.2 24.0446 130.413 24.1803 130.647 24.2671C130.881 24.3538 131.131 24.3894 131.38 24.3716C131.645 24.3783 131.909 24.3548 132.168 24.3012C132.404 24.242 132.632 24.156 132.849 24.0449L133.323 26.2064C132.941 26.3971 132.537 26.5455 132.122 26.6487C131.661 26.7642 131.186 26.8199 130.709 26.8146H130.729Z" fill="#0F495F"/>
<path d="M137.324 12.2775C136.866 12.2858 136.42 12.1206 136.078 11.815C135.912 11.6595 135.78 11.4718 135.69 11.2634C135.6 11.055 135.553 10.8305 135.553 10.6036C135.553 10.3766 135.6 10.1521 135.69 9.94378C135.78 9.73545 135.912 9.54774 136.078 9.39211C136.422 9.09067 136.864 8.92432 137.322 8.92432C137.78 8.92432 138.222 9.09067 138.566 9.39211C138.732 9.54774 138.864 9.73545 138.955 9.94378C139.045 10.1521 139.092 10.3766 139.092 10.6036C139.092 10.8305 139.045 11.055 138.955 11.2634C138.864 11.4718 138.732 11.6595 138.566 11.815C138.226 12.1194 137.782 12.2846 137.324 12.2775ZM135.982 26.4529V14.4289H138.662V26.4529H135.982Z" fill="#0F495F"/>
<path d="M145.29 26.4521L140.749 14.4282H143.685L147.026 24.1549H146.627L149.908 14.4282H152.759L148.334 26.4521H145.29Z" fill="#0F495F"/>
<path d="M160.261 26.8127C159.072 26.8378 157.895 26.5648 156.84 26.0184C155.877 25.5099 155.08 24.7394 154.539 23.7967C153.973 22.7801 153.688 21.6313 153.716 20.4689C153.706 19.5952 153.868 18.7278 154.19 17.9154C154.493 17.1548 154.948 16.4636 155.528 15.8837C156.107 15.3039 156.799 14.8475 157.562 14.5424C158.364 14.2232 159.221 14.0627 160.085 14.0699C161.002 14.0531 161.913 14.2331 162.755 14.5978C163.511 14.9315 164.178 15.4377 164.703 16.0756C165.23 16.716 165.612 17.4641 165.818 18.2673C166.037 19.1676 166.073 20.1025 165.923 21.0169H156.29C156.259 21.6796 156.424 22.3366 156.764 22.9069C157.11 23.4547 157.608 23.891 158.197 24.1636C158.888 24.4754 159.64 24.6283 160.397 24.611C161.07 24.6131 161.74 24.5096 162.381 24.3044C163.009 24.1025 163.597 23.791 164.117 23.3845L165.151 25.3047C164.723 25.6429 164.247 25.9157 163.739 26.114C163.179 26.3365 162.6 26.5048 162.007 26.6166C161.433 26.7374 160.849 26.803 160.261 26.8127ZM156.446 19.0665H163.289C163.298 18.6691 163.226 18.274 163.075 17.9058C162.925 17.5375 162.701 17.2038 162.416 16.9251C161.756 16.3715 160.906 16.0941 160.044 16.151C159.156 16.1161 158.284 16.3898 157.577 16.9251C157.25 17.185 156.981 17.5094 156.787 17.8779C156.592 18.2465 156.476 18.6512 156.446 19.0665Z" fill="#0F495F"/>
<path d="M42.5559 8.87412C42.5559 11.7192 40.4818 14.2979 37.1361 16.1529C33.8307 17.9826 29.294 19.1136 24.283 19.1136C19.2719 19.1136 14.7252 17.9876 11.4248 16.1579C8.07405 14.2979 6 11.7343 6 8.87412C6 5.19959 9.44162 1.98247 14.6192 0.172852C10.683 1.59541 8.13462 3.86248 8.13462 6.41606C8.13462 9.28632 11.3592 11.7997 16.1584 13.1519L16.88 13.3379C19.3015 13.9243 21.7858 14.2146 24.2779 14.2024C26.7683 14.2144 29.251 13.9241 31.6709 13.3379C31.9181 13.2826 32.1755 13.2172 32.3975 13.1519C37.1966 11.7997 40.4213 9.28632 40.4213 6.41606C40.4213 3.86248 37.8981 1.59541 33.9367 0.172852C39.1092 1.98247 42.5559 5.19959 42.5559 8.87412Z" fill="#4D956D"/>
<path d="M38.6902 19.8338C38.6902 22.3472 36.6717 24.5589 33.5127 26.0418L33.3815 26.1072C30.5056 27.344 27.4 27.9624 24.2677 27.9218C21.1349 27.9639 18.0286 27.3437 15.154 26.1021L15.0178 26.0418C11.8537 24.5337 9.84521 22.3271 9.84521 19.8338C9.87184 18.5997 10.3306 17.4137 11.1421 16.481C10.7381 16.9804 10.511 17.599 10.4962 18.2403C10.4962 20.4521 13.4382 22.3773 17.763 23.3525C18.4442 23.5083 19.1659 23.6391 19.9127 23.7445C21.3541 23.9437 22.8075 24.0428 24.2627 24.0411C25.7161 24.0428 27.1679 23.9437 28.6076 23.7445C29.3595 23.6391 30.0761 23.5083 30.7624 23.3525C35.0871 22.3773 38.0291 20.4521 38.0291 18.2403C38.0144 17.599 37.7873 16.9804 37.3832 16.481C38.1984 17.4123 38.6608 18.5985 38.6902 19.8338Z" fill="#F99E24"/>
<path d="M34.1108 28.2653C34.1108 31.8895 29.7104 34.8 24.2806 34.8C18.8506 34.8 14.4502 31.8645 14.4502 28.2653C14.4491 27.9595 14.4812 27.6544 14.5461 27.3554C14.526 27.4615 14.5159 27.5692 14.5158 27.6772C14.5158 30.1101 18.8859 32.0755 24.2806 32.0755C29.6751 32.0755 34.0402 30.1101 34.0402 27.6772C34.0402 27.5642 34.03 27.4515 34.0099 27.3403C34.0764 27.6442 34.1103 27.9543 34.1108 28.2653Z" fill="#DC3B34"/>
<path d="M36.9194 6.3878C36.9194 9.46419 31.5299 11.9574 24.8839 11.9574C24.2379 11.9574 23.6071 11.9323 22.9965 11.887H22.8401L22.3809 8.0416L22.5423 8.21753C22.9099 8.61694 23.39 8.89653 23.9198 9.01949C24.4496 9.14246 25.0043 9.1032 25.5112 8.90675C26.0182 8.7103 26.4538 8.36592 26.7609 7.91869C27.068 7.47145 27.2324 6.94223 27.2324 6.40036C27.2324 5.85851 27.068 5.32929 26.7609 4.88205C26.4538 4.43481 26.0182 4.09041 25.5112 3.89398C25.0043 3.69756 24.4496 3.65826 23.9198 3.78125C23.39 3.90422 22.9099 4.18375 22.5423 4.5832L22.3809 4.75914L22.8401 0.91368H22.9965C23.6071 0.868439 24.2379 0.848333 24.8839 0.848333C31.5299 0.823199 36.9194 3.31646 36.9194 6.3878Z" fill="#0F495F"/>
</g>
</g>
<defs>
<clipPath id="clip0_3609_2337">
<rect width="172" height="34.6543" fill="white" transform="translate(0 0.172852)"/>
</clipPath>
</defs>
</svg>
