<svg width="22" height="24" viewBox="0 0 22 24" fill="none" xmlns="http://www.w3.org/2000/svg">
<path fill-rule="evenodd" clip-rule="evenodd" d="M5.21243 0.000154261C5.23554 0.000226826 5.2581 0.00029757 5.28004 0.00029757H16.72C16.7419 0.00029757 16.7645 0.000226826 16.7876 0.000154261C17.0371 -0.000628999 17.3512 -0.00161474 17.6541 0.0841777C17.9164 0.158469 18.1625 0.280492 18.3798 0.444021C18.6307 0.632864 18.8184 0.882636 18.9675 1.0811C18.9813 1.09948 18.9948 1.11742 19.0079 1.13483L20.747 3.43438C20.7626 3.45504 20.7783 3.47576 20.794 3.49651L21.0759 3.86934C21.0908 3.88899 21.1055 3.90846 21.1202 3.92779C21.3381 4.21551 21.5304 4.46934 21.6708 4.75721C21.7942 5.01035 21.8842 5.27821 21.9386 5.55416C22.0005 5.86798 22.0002 6.18544 22 6.54528C21.9999 6.56946 21.9999 6.59383 21.9999 6.6184V19.4603C21.9999 20.0354 22 20.5315 21.9663 20.9401C21.9308 21.3713 21.8523 21.8003 21.6403 22.2131C21.3239 22.8289 20.819 23.3295 20.1981 23.6433C19.7819 23.8536 19.3494 23.9314 18.9145 23.9667C18.5025 24 18.0022 24 17.4224 24L4.57762 24C3.99777 24 3.49754 24 3.08552 23.9666C2.65065 23.9314 2.21811 23.8536 1.80189 23.6433C1.18096 23.3295 0.67613 22.8289 0.359749 22.2131C0.147677 21.8003 0.0692303 21.3713 0.0336995 20.9401C3.55688e-05 20.5314 5.26166e-05 20.0353 7.2286e-05 19.4603L7.35317e-05 6.61839C7.35317e-05 6.59382 5.48458e-05 6.56946 3.63565e-05 6.54528C-0.00023954 6.18543 -0.000482785 5.86798 0.0613753 5.55416C0.115772 5.2782 0.205802 5.01034 0.329243 4.7572C0.469617 4.46934 0.661875 4.21552 0.879802 3.92781C0.894444 3.90848 0.909202 3.88899 0.924068 3.86934L1.20677 3.49552C1.2222 3.47509 1.23764 3.45469 1.25303 3.43435C1.25993 3.42522 1.26682 3.41611 1.2737 3.40702C1.27449 3.40597 1.27528 3.40493 1.27607 3.40389L2.99205 1.13483C3.00522 1.11742 3.01869 1.09948 3.0325 1.08111C3.1816 0.88264 3.36925 0.632866 3.6202 0.444021C3.83751 0.280492 4.08359 0.158469 4.34589 0.0841777C4.6488 -0.00161474 4.96287 -0.000628999 5.21243 0.000154261ZM4.75204 2.4439L3.30005 4.36388H18.6999L17.248 2.4439C17.1444 2.30698 17.0918 2.23804 17.0512 2.18989C17.0501 2.18856 17.049 2.18728 17.048 2.18606C17.0464 2.18597 17.0447 2.18588 17.0429 2.18578C16.9797 2.18244 16.8925 2.18209 16.72 2.18209H5.28004C5.10746 2.18209 5.0203 2.18244 4.95708 2.18578C4.95533 2.18588 4.95365 2.18597 4.95204 2.18606C4.951 2.18728 4.94992 2.18856 4.9488 2.18989C4.90817 2.23804 4.85559 2.30698 4.75204 2.4439ZM19.7999 6.53391C19.6092 6.54576 19.3911 6.54572 19.1783 6.54567L2.86005 6.54567C2.84728 6.54567 2.83448 6.54567 2.82166 6.54567C2.60888 6.54572 2.39081 6.54576 2.20012 6.53391C2.20008 6.56064 2.20006 6.58877 2.20006 6.61839L2.20006 19.4182C2.20006 20.0472 2.20091 20.4533 2.22638 20.7624C2.25079 21.0588 2.29224 21.1686 2.31995 21.2226C2.42541 21.4278 2.59369 21.5947 2.80067 21.6993C2.85505 21.7268 2.96584 21.7679 3.26467 21.7921C3.57634 21.8174 3.98584 21.8182 4.62004 21.8182L17.38 21.8182C18.0142 21.8182 18.4237 21.8174 18.7353 21.7921C19.0342 21.7679 19.1449 21.7268 19.1993 21.6993C19.4063 21.5947 19.5746 21.4278 19.6801 21.2226C19.7078 21.1686 19.7492 21.0588 19.7736 20.7624C19.7991 20.4533 19.7999 20.0472 19.7999 19.4182V6.6184C19.7999 6.58877 19.7999 6.56064 19.7999 6.53391ZM6.60003 8.72746C7.20754 8.72746 7.70002 9.21587 7.70002 9.81836C7.70002 10.6863 8.0477 11.5187 8.66656 12.1325C9.28543 12.7462 10.1248 13.091 11 13.091C11.8752 13.091 12.7146 12.7462 13.3334 12.1325C13.9523 11.5187 14.3 10.6863 14.3 9.81836C14.3 9.21587 14.7925 8.72746 15.4 8.72746C16.0075 8.72746 16.5 9.21587 16.5 9.81836C16.5 11.265 15.9205 12.6523 14.8891 13.6753C13.8576 14.6982 12.4587 15.2728 11 15.2728C9.54132 15.2728 8.14238 14.6982 7.11094 13.6753C6.0795 12.6523 5.50004 11.265 5.50004 9.81836C5.50004 9.21587 5.99252 8.72746 6.60003 8.72746Z" fill="#FFFFFF"/>
</svg>
