<svg width="25" height="25" viewBox="0 0 25 25" fill="none" xmlns="http://www.w3.org/2000/svg">
    <g id="fi-rr-pencil" clip-path="url(#clip0_387_5471)">
        <path id="Vector"
              d="M23.353 2.13819C22.6732 1.45939 21.7517 1.07813 20.791 1.07812C19.8303 1.07813 18.9089 1.45939 18.229 2.13819L1.96502 18.4022C1.49927 18.8653 1.12998 19.4162 0.878513 20.023C0.627049 20.6298 0.498402 21.2804 0.500015 21.9372V23.9902C0.500015 24.2554 0.605372 24.5098 0.792908 24.6973C0.980445 24.8848 1.2348 24.9902 1.50002 24.9902H3.55301C4.20978 24.992 4.86038 24.8636 5.46717 24.6123C6.07396 24.361 6.62487 23.9918 7.08801 23.5262L23.353 7.26119C24.0315 6.58138 24.4126 5.66015 24.4126 4.69969C24.4126 3.73922 24.0315 2.81799 23.353 2.13819ZM5.67401 22.1122C5.11002 22.6724 4.34798 22.9879 3.55301 22.9902H2.50002V21.9372C2.499 21.5431 2.57617 21.1527 2.72705 20.7886C2.87793 20.4246 3.09953 20.094 3.37901 19.8162L15.722 7.47319L18.022 9.77319L5.67401 22.1122ZM21.938 5.84719L19.432 8.35419L17.132 6.05919L19.639 3.55219C19.79 3.4015 19.9693 3.28203 20.1664 3.2006C20.3636 3.11917 20.5749 3.07738 20.7883 3.07761C21.0016 3.07784 21.2128 3.12009 21.4098 3.20195C21.6069 3.28381 21.7858 3.40367 21.9365 3.55469C22.0872 3.70571 22.2067 3.88493 22.2881 4.08212C22.3695 4.27931 22.4113 4.49061 22.4111 4.70396C22.4109 4.9173 22.3686 5.12851 22.2868 5.32552C22.2049 5.52253 22.085 5.7015 21.934 5.85219L21.938 5.84719Z"
              fill="#0C485E"/>
    </g>
    <defs>
        <clipPath id="clip0_387_5471">
            <rect width="24" height="24" fill="white" transform="translate(0.5 0.988281)"/>
        </clipPath>
    </defs>
</svg>
