<svg width="19" height="19" viewBox="0 0 19 19" fill="none" xmlns="http://www.w3.org/2000/svg">
    <path fill-rule="evenodd" clip-rule="evenodd"
          d="M10.5 0.75C10.5 0.335786 10.8358 0 11.25 0H13C13.4142 0 13.75 0.335786 13.75 0.75C13.75 1.16421 13.4142 1.5 13 1.5H11.25C10.8358 1.5 10.5 1.16421 10.5 0.75ZM8.93743 0.742283C8.94304 1.15646 8.61184 1.49676 8.19766 1.50238C7.59288 1.51057 7.40705 1.55242 7.29601 1.60899C7.10785 1.70487 6.95487 1.85785 6.85899 2.04601C6.80242 2.15705 6.76057 2.34288 6.75238 2.94766C6.74677 3.36184 6.40646 3.69304 5.99228 3.68743C5.57811 3.68182 5.2469 3.34151 5.25252 2.92734C5.26033 2.35078 5.28688 1.82743 5.52248 1.36502C5.76217 0.894618 6.14462 0.512167 6.61502 0.272484C7.07743 0.0368781 7.60078 0.0103285 8.17734 0.00251508C8.59151 -0.00309771 8.93182 0.328108 8.93743 0.742283ZM15.3126 0.742283C15.3182 0.328108 15.6585 -0.00309771 16.0727 0.00251508C16.6492 0.0103285 17.1726 0.036878 17.635 0.272484C18.1054 0.512167 18.4878 0.894619 18.7275 1.36502C18.9631 1.82742 18.9897 2.35078 18.9975 2.92733C19.0031 3.3415 18.6719 3.68181 18.2577 3.68742C17.8435 3.69303 17.5032 3.36183 17.4976 2.94765C17.4894 2.34288 17.4476 2.15705 17.391 2.04601C17.2951 1.85785 17.1422 1.70487 16.954 1.60899C16.843 1.55242 16.6571 1.51057 16.0523 1.50238C15.6382 1.49676 15.307 1.15646 15.3126 0.742283ZM18.25 5.24999C18.6642 5.24999 19 5.58578 19 5.99999V7.74999C19 8.16421 18.6642 8.49999 18.25 8.49999C17.8358 8.49999 17.5 8.16421 17.5 7.74999V5.99999C17.5 5.58578 17.8358 5.24999 18.25 5.24999ZM3.52024 5.25H10.2298C10.6944 5.24999 11.0879 5.24998 11.4105 5.27633C11.7487 5.30397 12.0745 5.36426 12.385 5.52248C12.8554 5.76217 13.2378 6.14462 13.4775 6.61502C13.6357 6.92555 13.696 7.25133 13.7237 7.58953C13.75 7.9121 13.75 8.30554 13.75 8.77022V15.4798C13.75 15.9445 13.75 16.3379 13.7237 16.6605C13.696 16.9987 13.6357 17.3245 13.4775 17.635C13.2378 18.1054 12.8554 18.4878 12.385 18.7275C12.0745 18.8857 11.7487 18.946 11.4105 18.9737C11.0879 19 10.6945 19 10.2298 19H3.52022C3.05554 19 2.6621 19 2.33953 18.9737C2.00133 18.946 1.67555 18.8857 1.36502 18.7275C0.89462 18.4878 0.512169 18.1054 0.272485 17.635C0.114265 17.3245 0.0539659 16.9987 0.0263341 16.6605C-2.14297e-05 16.3379 -1.14165e-05 15.9444 5.04403e-07 15.4798V8.77024C-1.14165e-05 8.30555 -2.14297e-05 7.91211 0.0263341 7.58953C0.053966 7.25133 0.114265 6.92555 0.272485 6.61502C0.512168 6.14462 0.89462 5.76217 1.36502 5.52248C1.67555 5.36426 2.00133 5.30397 2.33953 5.27633C2.66211 5.24998 3.05556 5.24999 3.52024 5.25ZM2.46168 6.77135C2.21624 6.7914 2.10983 6.82647 2.04601 6.85899C1.85785 6.95487 1.70487 7.10785 1.60899 7.29601C1.57648 7.35983 1.54141 7.46624 1.52135 7.71168C1.50058 7.96587 1.5 8.29758 1.5 8.8V15.45C1.5 15.9524 1.50058 16.2841 1.52135 16.5383C1.54141 16.7838 1.57648 16.8902 1.60899 16.954C1.70487 17.1422 1.85785 17.2951 2.04601 17.391C2.10983 17.4235 2.21624 17.4586 2.46168 17.4786C2.71587 17.4994 3.04758 17.5 3.55 17.5H10.2C10.7024 17.5 11.0341 17.4994 11.2883 17.4786C11.5338 17.4586 11.6402 17.4235 11.704 17.391C11.8922 17.2951 12.0451 17.1422 12.141 16.954C12.1735 16.8902 12.2086 16.7838 12.2286 16.5383C12.2494 16.2841 12.25 15.9524 12.25 15.45V8.8C12.25 8.29758 12.2494 7.96587 12.2286 7.71168C12.2086 7.46624 12.1735 7.35983 12.141 7.29601C12.0451 7.10785 11.8922 6.95487 11.704 6.85899C11.6402 6.82647 11.5338 6.7914 11.2883 6.77135C11.0341 6.75058 10.7024 6.75 10.2 6.75H3.55C3.04758 6.75 2.71587 6.75058 2.46168 6.77135ZM18.2577 10.0626C18.6719 10.0682 19.0031 10.4085 18.9975 10.8227C18.9897 11.3992 18.9631 11.9226 18.7275 12.385C18.4878 12.8554 18.1054 13.2378 17.635 13.4775C17.1726 13.7131 16.6492 13.7397 16.0727 13.7475C15.6585 13.7531 15.3182 13.4219 15.3126 13.0077C15.307 12.5935 15.6382 12.2532 16.0523 12.2476C16.6571 12.2394 16.843 12.1976 16.954 12.141C17.1422 12.0451 17.2951 11.8922 17.391 11.704C17.4476 11.593 17.4894 11.4071 17.4976 10.8023C17.5032 10.3882 17.8435 10.0569 18.2577 10.0626Z"
          fill="#0C485E"/>
</svg>