<svg width="17" height="16" viewBox="0 0 17 16" fill="none" xmlns="http://www.w3.org/2000/svg">
<g clip-path="url(#clip0_3750_1478)">
<path d="M12.8927 6.06533C13.1507 6.328 13.1467 6.75 12.8833 7.008L9.93267 9.90467C9.41067 10.4167 8.73867 10.672 8.066 10.672C7.40067 10.672 6.73533 10.4213 6.21533 9.91933L4.94933 8.67467C4.68667 8.41667 4.68333 7.99467 4.94133 7.732C5.19867 7.46867 5.622 7.46533 5.884 7.724L7.146 8.96467C7.66333 9.46467 8.48 9.462 9 8.95267L11.95 6.05667C12.212 5.798 12.6327 5.80267 12.8927 6.06533ZM16.75 8C16.75 12.4113 13.1613 16 8.75 16C4.33867 16 0.75 12.4113 0.75 8C0.75 3.58867 4.33867 0 8.75 0C13.1613 0 16.75 3.58867 16.75 8ZM15.4167 8C15.4167 4.324 12.426 1.33333 8.75 1.33333C5.074 1.33333 2.08333 4.324 2.08333 8C2.08333 11.676 5.074 14.6667 8.75 14.6667C12.426 14.6667 15.4167 11.676 15.4167 8Z" fill="#4C956C"/>
</g>
<defs>
<clipPath id="clip0_3750_1478">
<rect width="16" height="16" fill="white" transform="translate(0.75)"/>
</clipPath>
</defs>
</svg>
