<svg width="25" height="24" viewBox="0 0 25 24" fill="none" xmlns="http://www.w3.org/2000/svg">
    <g id="fi-rr-key" clip-path="url(#clip0_387_5465)">
        <path id="Vector"
              d="M8.00498 24C6.19473 23.9989 4.44598 23.343 3.08143 22.1535C1.71688 20.9639 0.828614 19.321 0.58054 17.5278C0.332467 15.7346 0.741329 13.9122 1.73168 12.3969C2.72203 10.8816 4.22703 9.7756 5.96898 9.28302C7.2351 8.92045 8.57527 8.90387 9.84998 9.23502L17.758 1.32902C18.1778 0.906302 18.6774 0.571153 19.2277 0.343015C19.7781 0.114877 20.3682 -0.0017098 20.964 1.89472e-05C21.9015 0.000813379 22.8005 0.37361 23.4634 1.03657C24.1264 1.69952 24.4992 2.59846 24.5 3.53602C24.5015 4.13181 24.385 4.722 24.157 5.27246C23.9291 5.82292 23.5943 6.32274 23.172 6.74302L22.5 7.41502C22.124 7.78846 21.6159 7.99865 21.086 8.00002H19.5V9.00002C19.5 9.53045 19.2893 10.0392 18.9142 10.4142C18.5391 10.7893 18.0304 11 17.5 11H16.5V12.586C16.5007 12.8488 16.4493 13.109 16.3487 13.3517C16.2481 13.5945 16.1003 13.8148 15.914 14L15.264 14.65C15.5969 15.9241 15.5807 17.2644 15.217 18.53C14.8077 19.972 13.9773 21.259 12.8321 22.2262C11.6869 23.1934 10.2791 23.7968 8.78898 23.959C8.52852 23.9861 8.26684 23.9998 8.00498 24ZM8.00498 11C6.98113 10.999 5.97732 11.2838 5.10656 11.8224C4.23581 12.361 3.53266 13.1319 3.07628 14.0484C2.6199 14.9649 2.42841 15.9906 2.52335 17.0101C2.6183 18.0295 2.99591 19.0022 3.6137 19.8187C4.23148 20.6351 5.0649 21.2629 6.02013 21.6314C6.97537 21.9999 8.01451 22.0945 9.02057 21.9044C10.0266 21.7144 10.9597 21.2473 11.7147 20.5557C12.4696 19.8642 13.0166 18.9756 13.294 17.99C13.606 16.9066 13.571 15.7526 13.194 14.69C13.1324 14.5126 13.1221 14.3214 13.1642 14.1383C13.2063 13.9553 13.2991 13.7878 13.432 13.655L14.5 12.586V11C14.5 10.4696 14.7107 9.96088 15.0858 9.58581C15.4608 9.21073 15.9695 9.00002 16.5 9.00002H17.5V8.00002C17.5 7.46959 17.7107 6.96088 18.0858 6.58581C18.4608 6.21073 18.9695 6.00002 19.5 6.00002H21.086L21.758 5.32802C21.9939 5.09317 22.181 4.81388 22.3084 4.5063C22.4357 4.19871 22.5008 3.86893 22.5 3.53602C22.4997 3.1289 22.3379 2.73852 22.0502 2.45055C21.7624 2.16258 21.3721 2.00055 20.965 2.00002C20.6318 1.9992 20.3018 2.06445 19.9941 2.19198C19.6863 2.31951 19.4069 2.5068 19.172 2.74302L10.841 11.073C10.708 11.2059 10.5403 11.2986 10.3571 11.3405C10.1738 11.3825 9.98248 11.3719 9.80498 11.31C9.22505 11.1058 8.6148 11.001 7.99998 11H8.00498ZM5.49998 18C5.49998 18.1978 5.55863 18.3911 5.66851 18.5556C5.77839 18.72 5.93457 18.8482 6.11729 18.9239C6.30002 18.9996 6.50109 19.0194 6.69507 18.9808C6.88905 18.9422 7.06723 18.847 7.20708 18.7071C7.34694 18.5673 7.44218 18.3891 7.48076 18.1951C7.51935 18.0011 7.49954 17.8001 7.42386 17.6173C7.34817 17.4346 7.22 17.2784 7.05555 17.1685C6.8911 17.0587 6.69776 17 6.49998 17C6.23476 17 5.98041 17.1054 5.79287 17.2929C5.60533 17.4804 5.49998 17.7348 5.49998 18Z"
              fill="#0C485E"/>
    </g>
    <defs>
        <clipPath id="clip0_387_5465">
            <rect width="24" height="24" fill="white" transform="translate(0.5)"/>
        </clipPath>
    </defs>
</svg>