<svg width="48" height="48" viewBox="0 0 48 48" fill="none" xmlns="http://www.w3.org/2000/svg">
<path fill-rule="evenodd" clip-rule="evenodd" d="M24 3.99707C12.9543 3.99707 4 12.9514 4 23.9971C4 35.0428 12.9543 43.9971 24 43.9971C35.0457 43.9971 44 35.0428 44 23.9971C44 12.9514 35.0457 3.99707 24 3.99707ZM0 23.9971C0 10.7422 10.7452 -0.00292969 24 -0.00292969C37.2548 -0.00292969 48 10.7422 48 23.9971C48 37.2519 37.2548 47.9971 24 47.9971C10.7452 47.9971 0 37.2519 0 23.9971ZM32.7475 17.694C33.5286 18.475 33.5286 19.7413 32.7475 20.5224L22.9698 30.3002C22.1887 31.0812 20.9224 31.0812 20.1413 30.3002L15.2525 25.4113C14.4714 24.6302 14.4714 23.3639 15.2525 22.5829C16.0335 21.8018 17.2998 21.8018 18.0809 22.5829L21.5556 26.0575L29.9191 17.694C30.7002 16.9129 31.9665 16.9129 32.7475 17.694Z" fill="#4C956C"/>
</svg>
