<svg width="71" height="49" viewBox="0 0 71 49" fill="none" xmlns="http://www.w3.org/2000/svg">
<path d="M33.8714 1.56806C34.2143 1.56806 34.3857 1.74198 34.7286 1.91589C32.6714 2.78545 30.6143 5.04632 29.5857 9.91587L25.8143 10.9593C27.0143 7.48109 29.4143 1.56806 33.8714 1.56806ZM35.7571 3.30719C36.1 4.35067 36.4428 5.56806 36.4428 7.48109C36.4428 7.65501 36.4428 7.65501 36.4428 7.82892L31.4714 9.22022C32.5 5.56806 34.2143 4.00284 35.7571 3.30719ZM40.2143 6.43762L37.9857 7.13327C37.9857 6.95936 37.9857 6.78544 37.9857 6.61153C37.9857 5.04632 37.8143 3.82893 37.4714 2.78545C38.6714 3.13328 39.7 4.69849 40.2143 6.43762ZM51.3571 9.22022C51.3571 9.04631 51.1857 8.87239 51.0143 8.87239C50.6714 8.87239 47.0714 8.52457 47.0714 8.52457C47.0714 8.52457 44.5 5.91588 44.1571 5.74197C43.8143 5.39414 43.3 5.56805 43.1286 5.56805C43.1286 5.56805 42.6143 5.74197 41.7571 6.08979C40.9 3.65502 39.3571 1.39415 36.7857 1.39415H36.6143C35.9286 0.350676 34.9 0.0028509 34.0428 0.0028509C27.8714 -0.171062 24.9571 7.65501 23.9286 11.655C22.5571 12.0028 21.1857 12.5246 19.6429 13.0463C18.2714 13.3941 18.2714 13.568 18.1 14.7854C17.9286 15.655 14.5 43.1332 14.5 43.1332L41.7571 48.3506L56.5 45.0462C56.5 45.0462 51.3571 9.56805 51.3571 9.22022Z" fill="#8DB849"/>
<path d="M50.8435 8.8727C50.6721 8.8727 47.0721 8.52488 47.0721 8.52488C47.0721 8.52488 44.5007 5.91619 44.1578 5.74227C43.9864 5.56836 43.9864 5.56836 43.815 5.56836L41.7578 48.3509L56.5007 45.0466C56.5007 45.0466 51.3578 9.56835 51.3578 9.22053C51.3578 9.04662 51.015 8.8727 50.8435 8.8727Z" fill="#5A863E"/>
<path d="M36.7866 17.2206L34.9009 22.7858C34.9009 22.7858 33.358 21.9162 31.3009 21.9162C28.3866 21.9162 28.2152 23.6554 28.2152 24.1771C28.2152 26.6119 34.7295 27.6554 34.7295 33.5684C34.7295 38.264 31.8152 41.2205 27.8723 41.2205C23.2438 41.2205 20.8438 38.264 20.8438 38.264L22.0438 34.0901C22.0438 34.0901 24.4437 36.1771 26.5009 36.1771C27.8723 36.1771 28.3866 35.1336 28.3866 34.264C28.3866 30.9597 23.0723 30.7858 23.0723 25.3945C23.0723 20.8728 26.3295 16.5249 32.6723 16.5249C35.5866 16.351 36.7866 17.2206 36.7866 17.2206Z" fill="white"/>
</svg>
