<svg width="16" height="16" viewBox="0 0 16 16" fill="none" xmlns="http://www.w3.org/2000/svg">
<g clip-path="url(#clip0_3852_2173)">
<path d="M12.1094 5.28748V3.39014C12.622 3.15081 12.9507 2.63681 12.9534 2.07148V2.02681C12.9514 1.22014 12.298 0.567478 11.4914 0.564811H11.4467C10.64 0.566811 9.98738 1.22014 9.98471 2.02681V2.07148C9.98738 2.63748 10.316 3.15081 10.8287 3.39014V5.29148C10.1067 5.40214 9.42671 5.70081 8.85738 6.15881L3.63871 2.09481C3.87605 1.20681 3.34871 0.294144 2.46005 0.0568111C1.57138 -0.180522 0.659379 0.347478 0.422045 1.23548C0.184712 2.12348 0.712712 3.03614 1.60071 3.27348C2.02538 3.38681 2.47805 3.32748 2.85938 3.10881L7.99005 7.10281C7.04404 8.52948 7.07005 10.3901 8.05405 11.7908L6.49271 13.3521C6.36738 13.3121 6.23671 13.2908 6.10538 13.2888C5.35671 13.2888 4.75005 13.8955 4.75005 14.6441C4.75005 15.3935 5.35671 16.0001 6.10538 16.0001C6.85405 16.0001 7.46071 15.3935 7.46071 14.6448C7.45871 14.5135 7.43738 14.3828 7.39738 14.2575L8.94205 12.7128C10.77 14.1088 13.3834 13.7588 14.7794 11.9315C16.1754 10.1041 15.8254 7.49014 13.998 6.09414C13.4447 5.67148 12.794 5.39414 12.106 5.28814M11.4667 11.5388C10.2867 11.5361 9.33205 10.5768 9.33471 9.39681C9.33738 8.21681 10.2967 7.26214 11.4767 7.26481C12.6554 7.26748 13.6094 8.22414 13.6087 9.40281C13.6087 10.5828 12.652 11.5395 11.472 11.5395" fill="#0C485E"/>
</g>
<defs>
<clipPath id="clip0_3852_2173">
<rect width="16" height="16" fill="white"/>
</clipPath>
</defs>
</svg>
