<svg width="16" height="16" viewBox="0 0 16 16" fill="none" xmlns="http://www.w3.org/2000/svg">
<g clip-path="url(#clip0_3852_1858)">
<path d="M16 4.63277V9.85503C15.974 9.95222 15.9544 10.0516 15.9207 10.146C15.7001 10.7665 15.1481 11.1445 14.4602 11.1449C12.9644 11.146 11.4686 11.1452 9.97255 11.1452H9.84541C9.86504 11.1954 9.87765 11.2285 9.89106 11.2611C10.0841 11.7298 10.2771 12.1982 10.4701 12.6666C10.4371 12.6523 10.4024 12.6403 10.371 12.6232C9.50185 12.1488 8.63371 11.6727 7.76298 11.2009C7.69991 11.1667 7.61962 11.1476 7.54714 11.1474C6.64077 11.1439 5.7346 11.1451 4.82822 11.1451C3.72864 11.1451 2.62906 11.1413 1.52948 11.1462C0.65033 11.1504 -0.00517481 10.4602 3.07871e-05 9.64432C0.010442 8.03164 0.00243337 6.41857 0.00443552 4.8059C0.00443552 4.69907 0.0162482 4.59027 0.0378715 4.48561C0.17562 3.81748 0.809701 3.33232 1.51466 3.3335C5.8297 3.34117 10.1447 3.33724 14.4598 3.33724C14.4898 3.33724 14.5198 3.33645 14.5497 3.33802C15.1389 3.36734 15.5744 3.63864 15.8399 4.1541C15.9161 4.30224 15.948 4.47262 16 4.63277ZM2.44846 8.32951C2.43645 8.30236 2.42804 8.28878 2.42444 8.27403C2.17177 7.25885 1.98316 6.23167 1.82279 5.19918C1.80677 5.09589 1.79256 4.99221 1.77033 4.8903C1.68484 4.49721 1.31104 4.33707 0.952254 4.53794C0.746433 4.65323 0.655936 4.87082 0.70579 5.15118C0.856552 5.99657 1.00091 6.84314 1.16508 7.68577C1.30243 8.3905 1.458 9.09266 1.70426 9.77023C1.76933 9.94907 1.86043 10.1242 1.96955 10.2808C2.07826 10.4368 2.24524 10.4498 2.41122 10.3486C2.47569 10.3093 2.53716 10.2623 2.59122 10.2101C2.83468 9.97602 3.00686 9.69134 3.16043 9.39761C3.47917 8.78752 3.7883 8.17271 4.10144 7.55986C4.11786 7.52779 4.13628 7.49671 4.1573 7.45874C4.25521 7.73889 4.3407 8.00626 4.44181 8.26793C4.67205 8.86307 4.95656 9.43086 5.37601 9.92251C5.49714 10.0644 5.62988 10.2031 5.77984 10.3136C6.07216 10.5293 6.41593 10.4065 6.51664 10.0622C6.53926 9.98488 6.54907 9.90067 6.54627 9.8202C6.52765 9.31596 6.53245 8.81211 6.60313 8.31219C6.69242 7.68204 6.78432 7.05188 6.89664 6.42546C6.99014 5.90371 7.15933 5.40281 7.39078 4.92119C7.51291 4.667 7.37556 4.37504 7.10827 4.25031C6.84098 4.12557 6.54046 4.21233 6.40071 4.46101C6.33344 4.58063 6.27217 4.70458 6.21852 4.83069C5.85352 5.68847 5.70356 6.59623 5.58063 7.50989C5.55981 7.66453 5.54339 7.81956 5.52177 8.00016C5.50054 7.95216 5.48973 7.92914 5.48032 7.90553C5.25168 7.32948 5.09551 6.73316 4.96156 6.13015C4.91652 5.92712 4.87787 5.71798 4.79619 5.52833C4.68246 5.26411 4.35411 5.18954 4.12647 5.36956C4.01895 5.45475 3.92805 5.57318 3.86198 5.69378C3.5104 6.33476 3.16924 6.98125 2.82447 7.62577C2.70113 7.85635 2.5782 8.08693 2.44846 8.32951ZM15.1723 6.97397C15.1709 6.56337 15.1109 6.18662 14.9445 5.82835C14.5915 5.06914 13.8353 4.79685 13.1464 4.92197C12.6725 5.00795 12.3281 5.28516 12.0578 5.65896C11.7 6.15357 11.4918 6.70404 11.4359 7.3102C11.3951 7.75483 11.4191 8.19179 11.5797 8.6136C11.7248 8.99468 11.9497 9.31872 12.3243 9.51388C13.0753 9.9052 13.921 9.72616 14.4428 9.06512C14.9325 8.4446 15.1635 7.73457 15.1723 6.97397ZM11.0703 7.10618C11.0703 6.55964 11.0089 6.18996 10.8475 5.83701C10.4985 5.07366 9.73009 4.79508 9.04475 4.92178C8.57124 5.00933 8.22667 5.28555 7.95658 5.65955C7.6014 6.1514 7.39238 6.69834 7.33652 7.30095C7.29507 7.74854 7.3169 8.18884 7.47947 8.61399C7.62503 8.99508 7.84987 9.31872 8.22427 9.51388C8.97087 9.90284 9.81558 9.72793 10.3365 9.0724C10.8327 8.44814 11.0661 7.73221 11.0703 7.10618Z" fill="#0C485E"/>
<path d="M14.0812 7.12212C14.0704 7.43651 13.9813 7.84376 13.7218 8.19946C13.5962 8.37181 13.4447 8.51818 13.2353 8.59117C13.0635 8.65118 12.9115 8.6138 12.7928 8.47844C12.6286 8.29114 12.5577 8.06155 12.5249 7.82389C12.444 7.23839 12.619 6.71959 12.9822 6.25803C13.0423 6.1817 13.1191 6.11343 13.2006 6.05952C13.4679 5.88226 13.7244 5.94345 13.883 6.21908C14.0235 6.46304 14.0876 6.72726 14.0812 7.12212Z" fill="#0C485E"/>
<path d="M9.97956 7.01843C9.97055 7.44457 9.88185 7.85123 9.61777 8.19789C9.51846 8.32833 9.38672 8.44342 9.24857 8.53471C9.00891 8.69348 8.76726 8.63052 8.6201 8.384C8.44311 8.08771 8.38284 7.76349 8.40927 7.42254C8.44211 7.00014 8.59287 6.62043 8.85976 6.29069C8.94845 6.18111 9.06538 6.08451 9.18811 6.0129C9.37191 5.90548 9.57292 5.9521 9.70747 6.11638C9.88666 6.33555 9.95213 6.59761 9.97896 6.87127C9.98376 6.91987 9.97956 6.96925 9.97956 7.01843Z" fill="#0C485E"/>
</g>
<defs>
<clipPath id="clip0_3852_1858">
<rect width="16" height="16" fill="white"/>
</clipPath>
</defs>
</svg>
