<svg width="16" height="16" viewBox="0 0 16 16" fill="none" xmlns="http://www.w3.org/2000/svg">
<g clip-path="url(#clip0_3852_1647)">
<path d="M0.00472364 9.34182C-0.0148293 8.53091 0.305249 7.86732 0.890363 7.32131C1.00054 7.21685 1.12237 7.12541 1.25343 7.04877C1.3058 7.01878 1.31196 6.98931 1.28986 6.93588C1.13349 6.56233 1.05598 6.16051 1.06219 5.7556C1.07558 4.96237 1.34209 4.26396 1.88234 3.67737C2.40625 3.10846 3.05351 2.77365 3.82263 2.68794C4.69675 2.59071 5.47753 2.82481 6.16121 3.37872C6.32607 3.51214 6.475 3.66412 6.60504 3.83165C6.64213 3.87946 6.66383 3.87477 6.70267 3.83594C7.13792 3.40082 7.66143 3.13498 8.26958 3.04712C9.05719 2.93356 9.76953 3.12627 10.4006 3.6096C10.6898 3.83159 10.9329 4.10791 11.1161 4.42306C11.142 4.46699 11.163 4.47489 11.2099 4.4544C11.715 4.23583 12.245 4.152 12.7914 4.19191C13.4878 4.24266 14.1162 4.484 14.6642 4.91938C15.3381 5.45508 15.7705 6.14492 15.9307 6.99052C16.121 7.99602 15.9211 8.92612 15.3094 9.75096C14.747 10.5086 13.9916 10.9647 13.0575 11.1142C12.6959 11.1722 12.327 11.1683 11.9667 11.1027C11.8863 11.0883 11.8462 11.1098 11.8053 11.176C11.4512 11.7409 10.9519 12.1169 10.3087 12.2918C9.73283 12.4485 9.16888 12.3989 8.62354 12.156C8.56997 12.1319 8.54921 12.1391 8.52403 12.1921C8.13878 13.0046 7.51295 13.534 6.64655 13.7805C6.49003 13.8265 6.32756 13.849 6.16443 13.8474C5.94158 13.8439 5.71739 13.8581 5.49588 13.8394C5.11661 13.8073 4.76747 13.6709 4.4423 13.4763C3.88446 13.1426 3.48224 12.6743 3.23564 12.0716C3.21301 12.0159 3.18796 12.0006 3.12636 12.0107C2.288 12.1466 1.5419 11.9421 0.901613 11.3834C0.385738 10.931 0.0912386 10.356 0.00659858 9.67583C-0.00706168 9.56615 0.00472364 9.45325 0.00472364 9.34182ZM8.16378 9.29883C8.44957 9.29883 8.6001 9.19464 8.69559 8.94045C8.72082 8.87606 8.74009 8.80949 8.75318 8.74157C8.82014 8.36659 8.8859 7.9916 8.95567 7.61661C8.99317 7.41573 8.95715 7.45269 9.1508 7.44988C9.34861 7.4476 9.30776 7.46689 9.34794 7.2818C9.36026 7.22569 9.33789 7.20895 9.28606 7.21029C9.22151 7.21176 9.15683 7.21029 9.09214 7.21029C9.0446 7.21029 9.02652 7.18899 9.03857 7.14333C9.0529 7.08976 9.06361 7.03418 9.0837 6.98262C9.10369 6.93114 9.14024 6.88778 9.1876 6.85938C9.23496 6.83098 9.29043 6.81916 9.34526 6.82579C9.48266 6.83918 9.48266 6.83918 9.52981 6.70861C9.53436 6.69602 9.53878 6.6833 9.54414 6.67111C9.5594 6.63589 9.54574 6.61446 9.51105 6.60629C9.34111 6.56611 9.17397 6.56611 9.01862 6.65718C8.85871 6.75093 8.79938 6.91016 8.76242 7.07837C8.73189 7.21779 8.75104 7.2139 8.59461 7.20895C8.52136 7.20667 8.49256 7.23172 8.48172 7.3039C8.45761 7.46461 8.44636 7.44921 8.60225 7.44988C8.69733 7.44988 8.6976 7.45068 8.68113 7.54269C8.6289 7.83424 8.57827 8.12619 8.52417 8.41748C8.49497 8.57497 8.47663 8.73528 8.41703 8.88621C8.36493 9.01612 8.2811 9.06768 8.14811 9.05884C8.10552 9.05603 8.05771 9.01358 8.02262 9.05188C7.99463 9.08268 7.98687 9.13223 7.97026 9.17335C7.96611 9.18366 7.96303 9.19451 7.95928 9.20495C7.94508 9.24513 7.95928 9.26776 7.99945 9.27995C8.05291 9.29477 8.10835 9.30114 8.16378 9.29883ZM4.79171 8.08481C4.79171 7.94674 4.79425 7.80866 4.79104 7.67058C4.78488 7.40046 4.66341 7.24752 4.41216 7.19408C4.21798 7.15257 4.02646 7.17453 3.83884 7.23426C3.66848 7.28783 3.66728 7.2968 3.73103 7.46193C3.75232 7.51711 3.77777 7.52046 3.82625 7.49782C3.96472 7.43327 4.11231 7.41613 4.26338 7.42577C4.4194 7.43568 4.49935 7.51711 4.50149 7.66576C4.50256 7.74464 4.49774 7.7496 4.41819 7.73848C4.23003 7.71237 4.04441 7.71317 3.86817 7.7958C3.67317 7.88727 3.58023 8.06204 3.60554 8.28235C3.62724 8.47065 3.74656 8.59412 3.95789 8.64153C4.22708 8.70207 4.4889 8.64609 4.75019 8.58649C4.79037 8.57752 4.79224 8.54631 4.79224 8.51337C4.79188 8.37025 4.79171 8.2274 4.79171 8.08481ZM13.8837 7.9987C14.0129 7.9987 14.1423 7.99522 14.2721 8.00004C14.339 8.00258 14.3651 7.97633 14.3687 7.91366C14.3771 7.76929 14.3608 7.62826 14.3007 7.49608C14.1049 7.06511 13.4605 7.09083 13.2336 7.4334C13.0729 7.67634 13.0595 7.94232 13.1342 8.21592C13.1962 8.44225 13.3519 8.57886 13.5762 8.63658C13.7816 8.69015 13.9873 8.67676 14.1902 8.62051C14.3191 8.58502 14.3205 8.57805 14.2762 8.44935C14.2711 8.43462 14.265 8.42016 14.2612 8.40502C14.2501 8.36096 14.2263 8.3473 14.1827 8.36592C14.0475 8.42337 13.9046 8.42364 13.7617 8.41627C13.5663 8.4061 13.4259 8.26494 13.4105 8.07021C13.4064 8.01879 13.4231 7.99696 13.4775 7.99776C13.6118 7.9999 13.7477 7.99856 13.8837 7.9987ZM6.4462 7.9987C6.58441 7.9987 6.72276 7.99749 6.86137 7.9987C6.91226 7.99937 6.93583 7.98008 6.93449 7.92852C6.93315 7.87951 6.93543 7.83049 6.93449 7.78121C6.92994 7.46796 6.72999 7.19756 6.39598 7.17855C6.09519 7.161 5.83926 7.29466 5.73025 7.5676C5.65712 7.75067 5.64788 7.94044 5.68377 8.13262C5.71578 8.30338 5.78917 8.45324 5.94185 8.54524C6.22791 8.71747 6.52857 8.69457 6.83123 8.59346C6.85963 8.58395 6.88896 8.56533 6.87355 8.52984C6.84784 8.47078 6.85065 8.39726 6.78905 8.35654C6.78289 8.35253 6.76776 8.36003 6.75758 8.36418C6.62365 8.41868 6.4841 8.42284 6.34241 8.41694C6.13336 8.40797 5.99501 8.26963 5.98082 8.0603C5.97747 8.01236 5.9918 7.99696 6.03881 7.99763C6.17394 7.99977 6.31027 7.99856 6.4462 7.9987ZM10.0498 8.66832C10.3613 8.66832 10.5925 8.50466 10.6742 8.22195C10.7329 8.02406 10.7315 7.81317 10.6702 7.61608C10.6465 7.53321 10.6052 7.45646 10.549 7.39112C10.4928 7.32578 10.4231 7.27341 10.3447 7.23761C10.2262 7.18096 10.1013 7.17306 9.97296 7.18404C9.72252 7.20573 9.54788 7.33323 9.45213 7.56345C9.38102 7.7342 9.37352 7.91312 9.39856 8.09553C9.44691 8.44748 9.69614 8.66805 10.0498 8.66832ZM7.69089 8.66899C7.77533 8.67469 7.86005 8.6633 7.93999 8.63551C8.11677 8.57297 8.22405 8.42859 8.23007 8.24244C8.23556 8.06834 8.15119 7.94339 7.97106 7.86866C7.87236 7.82781 7.77018 7.79473 7.6696 7.75911C7.61403 7.74182 7.56132 7.71641 7.51318 7.68371C7.43282 7.62478 7.43282 7.51537 7.51425 7.45751C7.5584 7.4265 7.61124 7.41028 7.66518 7.41117C7.77234 7.41306 7.87837 7.4335 7.97856 7.47157C8.11945 7.52166 8.11771 7.52099 8.17195 7.3805C8.1919 7.32894 8.18427 7.30015 8.13258 7.27444C8.01462 7.21542 7.8858 7.18124 7.75411 7.17399C7.61657 7.16596 7.48157 7.17828 7.36198 7.25663C7.23033 7.34274 7.16444 7.46514 7.16832 7.62277C7.17221 7.78522 7.25738 7.89424 7.40162 7.95906C7.46242 7.98584 7.52643 8.00647 7.58911 8.02896C7.67509 8.05977 7.76469 8.08012 7.84678 8.12191C7.90464 8.15124 7.9416 8.19316 7.94053 8.26306C7.93946 8.33297 7.90156 8.37958 7.84209 8.41038C7.7918 8.43527 7.73574 8.44618 7.67978 8.44199C7.55916 8.43584 7.44132 8.40358 7.33439 8.34744C7.19738 8.27512 7.20046 8.27565 7.14555 8.42672C7.12439 8.48511 7.13832 8.51591 7.19069 8.54471C7.34671 8.63015 7.5113 8.67729 7.69089 8.66899ZM2.8857 8.66899C2.97909 8.67649 3.07293 8.6618 3.15957 8.62613C3.33153 8.55609 3.41403 8.42176 3.42447 8.24244C3.43385 8.07423 3.34867 7.96026 3.20149 7.88634C3.12882 7.8523 3.05402 7.823 2.97757 7.79862C2.88931 7.76768 2.79811 7.74317 2.71856 7.69148C2.62388 7.63041 2.62615 7.50787 2.72204 7.44921C2.76416 7.42337 2.81273 7.41 2.86213 7.41064C2.96482 7.41251 3.06649 7.43152 3.16292 7.46689C3.31801 7.52046 3.31653 7.51979 3.37224 7.36497C3.38791 7.32158 3.3768 7.29935 3.33836 7.27966C3.20104 7.20904 3.04882 7.17231 2.8944 7.17252C2.77186 7.17252 2.65521 7.19248 2.55022 7.26118C2.29576 7.42805 2.29014 7.83009 2.59321 7.95758C2.64678 7.97995 2.70035 8.00017 2.75512 8.01999C2.85958 8.05789 2.97168 8.07664 3.06676 8.13825C3.15462 8.19517 3.16279 8.30659 3.08524 8.37757C3.02726 8.43114 2.95507 8.44453 2.87994 8.44145C2.76137 8.4372 2.64521 8.40679 2.53977 8.35239C2.3958 8.27713 2.39808 8.27766 2.33808 8.43489C2.3188 8.48511 2.32898 8.51136 2.37397 8.53721C2.5304 8.62613 2.6962 8.67743 2.8857 8.66899ZM11.8845 7.95343C11.8849 8.00956 11.8903 8.06554 11.9007 8.1207C11.9491 8.40409 12.1356 8.59707 12.4144 8.6497C12.5485 8.67405 12.6861 8.67209 12.8195 8.64394C13.0156 8.60457 13.0158 8.60377 12.9427 8.42123C12.9257 8.37891 12.9052 8.36592 12.8624 8.38212C12.7753 8.41507 12.6841 8.41949 12.5921 8.41654C12.3912 8.41025 12.2485 8.29695 12.2051 8.10169C12.1721 7.9533 12.1747 7.80424 12.2328 7.66161C12.2873 7.52769 12.3863 7.44318 12.5328 7.42698C12.6082 7.41818 12.6845 7.42026 12.7594 7.43314C12.9186 7.4618 12.9169 7.46086 12.9684 7.30377C12.9853 7.25207 12.97 7.23024 12.9213 7.21685C12.8459 7.19653 12.7688 7.1833 12.6909 7.17734C12.4464 7.15699 12.2222 7.20413 12.0543 7.39899C11.925 7.54831 11.8839 7.72884 11.8845 7.95343ZM5.10254 7.61902C5.10254 7.89745 5.10134 8.17588 5.10254 8.45431C5.10375 8.66993 5.07281 8.63819 5.29111 8.64046C5.39329 8.64153 5.39356 8.64046 5.39356 8.5348C5.39356 7.96241 5.39503 7.38988 5.39356 6.81749C5.39262 6.57549 5.43267 6.6166 5.18517 6.61004C5.11928 6.6083 5.10134 6.63495 5.10174 6.69682C5.10348 7.00418 5.10254 7.31167 5.10254 7.61902ZM10.964 7.91366C10.964 8.08307 10.9624 8.25248 10.964 8.42176C10.9671 8.66283 10.9253 8.62386 11.1727 8.63015C11.2377 8.63189 11.2572 8.60792 11.2564 8.54484C11.2535 8.32869 11.2555 8.1124 11.2554 7.89611C11.2551 7.82696 11.2641 7.75809 11.2822 7.69134C11.3244 7.53653 11.4266 7.45443 11.5792 7.44934C11.7413 7.44398 11.74 7.44318 11.7975 7.2893C11.8187 7.23319 11.8008 7.2139 11.7476 7.20332C11.5818 7.17024 11.428 7.18846 11.2944 7.30122C11.2692 7.32252 11.2419 7.33524 11.2451 7.28703C11.2505 7.20453 11.2049 7.19515 11.1405 7.19998C11.1093 7.20259 11.078 7.20259 11.0468 7.19998C10.9825 7.19395 10.9612 7.22154 10.9621 7.28515C10.9656 7.49501 10.9641 7.70407 10.964 7.91366Z" fill="#0C485E"/>
<path d="M4.50106 8.18807C4.50106 8.24164 4.50106 8.29521 4.50106 8.34811C4.50106 8.38186 4.48861 8.40382 4.45405 8.40985C4.32428 8.43235 4.19397 8.45003 4.06366 8.41748C3.95559 8.3907 3.89867 8.32267 3.89452 8.22209C3.88956 8.09928 3.93804 8.02361 4.04558 7.98317C4.17951 7.93268 4.31705 7.94915 4.45405 7.96669C4.48927 7.97125 4.5016 7.99428 4.50106 8.0279C4.50052 8.08133 4.50106 8.13464 4.50106 8.18807Z" fill="#0C485E"/>
<path d="M13.7433 7.7746C13.6543 7.7746 13.5653 7.77286 13.4764 7.77527C13.4194 7.77675 13.4095 7.75358 13.4208 7.70161C13.4686 7.49149 13.6304 7.37846 13.8264 7.42171C13.8963 7.43822 13.9588 7.47757 14.0039 7.53355C14.049 7.58952 14.0742 7.65893 14.0755 7.73081C14.0755 7.76978 14.0532 7.77447 14.024 7.7746H13.7433Z" fill="#0C485E"/>
<path d="M6.31257 7.77476C6.2278 7.77476 6.14302 7.77476 6.05812 7.77476C5.98325 7.77409 5.97776 7.76592 5.99624 7.69159C6.04834 7.48321 6.20945 7.37687 6.40351 7.42294C6.54118 7.45562 6.64457 7.59101 6.64457 7.73204C6.64457 7.77221 6.62288 7.77503 6.59368 7.77503L6.31257 7.77476Z" fill="#0C485E"/>
<path d="M10.4145 7.92413C10.4069 8.03609 10.398 8.14939 10.3475 8.25372C10.2816 8.38871 10.1689 8.43826 10.0242 8.43023C9.89032 8.42273 9.79657 8.35657 9.7489 8.23256C9.67403 8.03609 9.6743 7.83561 9.74113 7.63767C9.78961 7.4941 9.88845 7.4266 10.0311 7.42339C10.2024 7.41991 10.2949 7.47548 10.3591 7.62213C10.4006 7.71802 10.4083 7.82007 10.4145 7.92413Z" fill="#0C485E"/>
</g>
<defs>
<clipPath id="clip0_3852_1647">
<rect width="16" height="16" fill="white"/>
</clipPath>
</defs>
</svg>
