<svg width="16" height="16" viewBox="0 0 16 16" fill="none" xmlns="http://www.w3.org/2000/svg">
<path d="M8.02648 7.69129C7.81113 8.05757 7.60194 8.40686 7.39983 8.75951C6.90755 9.61842 6.43306 10.4869 5.85478 11.2958C5.48613 11.8121 5.09537 12.3108 4.59099 12.7099C3.882 13.271 3.07126 13.3861 2.20577 13.1988C1.30333 13.0026 0.722995 12.4313 0.363022 11.6193C0.119618 11.0679 0.0190177 10.4861 0.00350551 9.89123C-0.0370998 8.31003 0.273827 6.80062 1.00016 5.38199C1.41534 4.57071 1.95826 3.85804 2.70855 3.30951C3.83067 2.48905 5.31755 2.45708 6.47982 3.22543C7.12152 3.64918 7.63388 4.19883 8.10837 4.78829C8.13574 4.82228 8.16494 4.85537 8.19802 4.89406C8.35611 4.69638 8.50347 4.50385 8.65996 4.31824C9.06305 3.83993 9.50401 3.40141 10.0499 3.0756C10.87 2.58745 11.7236 2.54272 12.5991 2.90632C13.3141 3.20306 13.8645 3.70441 14.3278 4.30281C15.0496 5.23485 15.4798 6.29569 15.7403 7.42943C15.9345 8.27493 16.0307 9.13205 15.9913 9.99902C15.9561 10.7647 15.8088 11.5066 15.3941 12.1726C14.8657 13.0223 14.0742 13.3692 13.0786 13.3302C12.1844 13.2951 11.506 12.8676 10.9368 12.2298C10.4122 11.6419 9.98283 10.9883 9.57929 10.3186C9.08199 9.49275 8.59974 8.65821 8.11088 7.82769C8.08761 7.78722 8.0632 7.75054 8.02648 7.69129ZM14.4058 9.44198C14.3894 9.23156 14.3705 8.85588 14.329 8.48267C14.2306 7.60139 14.0169 6.74851 13.6266 5.94439C13.3668 5.40905 13.044 4.91575 12.5695 4.5356C11.8311 3.94391 10.9405 3.87548 10.1685 4.53426C9.68468 4.94728 9.31877 5.4531 8.97408 5.97592C8.95789 6.00052 8.97408 6.06 8.9937 6.09086C9.17437 6.36591 9.36599 6.63447 9.54119 6.9122C10.2919 8.09737 11.0361 9.28501 11.7884 10.4677C11.9724 10.7633 12.1948 11.0343 12.4499 11.2739C12.8987 11.6878 13.8501 11.6793 14.1884 10.9161C14.3766 10.497 14.4093 10.0556 14.4058 9.44198ZM7.18243 6.40079C6.9315 6.08929 6.68604 5.77265 6.42758 5.46696C6.15932 5.15055 5.86276 4.86387 5.49777 4.65434C4.82915 4.27128 4.15369 4.31712 3.54985 4.78851C3.15361 5.09755 2.8639 5.49246 2.62939 5.92538C1.96442 7.15058 1.67494 8.46344 1.71326 9.84628C1.72398 10.2387 1.79607 10.6234 2.00412 10.9695C2.15832 11.2267 2.36911 11.4167 2.67935 11.4709C3.17825 11.5563 3.60825 11.4154 3.94678 11.0518C4.19771 10.7835 4.44363 10.5068 4.65053 10.2063C5.2149 9.38697 5.75805 8.55378 6.30828 7.72416C6.59776 7.28922 6.88474 6.85138 7.18243 6.40079Z" fill="#0C485E"/>
</svg>
