<svg width="16" height="16" viewBox="0 0 16 16" fill="none" xmlns="http://www.w3.org/2000/svg">
<g clip-path="url(#clip0_3862_2326)">
<path d="M14.9767 6.57733C13.5507 6.57733 12.2287 6.12133 11.15 5.34667V10.9367C11.15 13.7287 8.87866 15.9993 6.08733 15.9993C5.00866 15.9993 4.00799 15.6593 3.18599 15.082C1.88066 14.1653 1.02466 12.6493 1.02466 10.9367C1.02466 8.14467 3.29599 5.87333 6.08799 5.87333C6.31999 5.87333 6.54666 5.89267 6.76999 5.92267V6.574V8.73067C6.55399 8.66333 6.32599 8.624 6.08799 8.624C4.81333 8.624 3.77599 9.66133 3.77599 10.9367C3.77599 11.8247 4.27999 12.596 5.01599 12.9833C5.33666 13.152 5.70133 13.2487 6.08866 13.2487C7.33399 13.2487 8.34999 12.258 8.39666 11.0233L8.39866 0H11.1493C11.1493 0.238667 11.1727 0.471333 11.214 0.698C11.408 1.746 12.03 2.64533 12.892 3.20733C13.492 3.59867 14.208 3.82733 14.976 3.82733L14.9767 6.57733Z" fill="#0C485E"/>
</g>
<defs>
<clipPath id="clip0_3862_2326">
<rect width="16" height="16" fill="white"/>
</clipPath>
</defs>
</svg>
