<svg width="16" height="16" viewBox="0 0 16 16" fill="none" xmlns="http://www.w3.org/2000/svg">
<g clip-path="url(#clip0_3862_2318)">
<path d="M2.31021 0C3.22781 0.288407 4.1454 0.583084 5.063 0.865222C5.63497 1.04391 5.65944 1.06899 5.65944 1.68029C5.65944 4.37 5.65944 7.06075 5.65944 9.75255C5.66365 9.9006 5.63469 10.0477 5.57477 10.1824C5.51485 10.3172 5.42558 10.4361 5.31381 10.53C4.34728 11.4015 3.38992 12.2793 2.42644 13.1664L2.34691 13.2291L2.37444 13.2636L2.93418 12.9501L9.2136 9.56446C9.59288 9.35756 9.97215 9.15693 10.3484 8.93749C10.4157 8.89987 10.5196 8.88106 10.5135 8.77761C10.5074 8.67416 10.4157 8.66789 10.3484 8.63654L8.63857 7.84029C8.41622 7.74362 8.23876 7.56287 8.14307 7.33558C7.72098 6.38258 7.28767 5.42331 6.84314 4.45777C6.8095 4.38254 6.75444 4.29789 6.81561 4.22266C6.87679 4.14742 6.97772 4.19131 7.05725 4.22266L12.2814 5.85279L14.3216 6.47976C14.426 6.49826 14.5195 6.55689 14.5832 6.64369C14.6469 6.7305 14.6758 6.83892 14.6641 6.94685C14.6641 8.00644 14.6641 9.06288 14.6641 10.1225C14.6756 10.2651 14.645 10.4081 14.5763 10.5327C14.5076 10.6574 14.4039 10.758 14.2787 10.8215C12.9421 11.6272 11.6116 12.4454 10.278 13.2605C8.84962 14.132 7.41817 15.0003 5.99589 15.8812C5.88476 15.9635 5.74986 16.0052 5.61286 15.9995C5.47585 15.9938 5.34469 15.9411 5.2404 15.8499C4.27387 15.1539 3.2951 14.458 2.31021 13.762C2.21033 13.6939 2.12956 13.6002 2.0759 13.4903C2.02225 13.3803 1.99758 13.2578 2.00434 13.1351C2.00434 8.86957 2.00434 4.60093 2.00434 0.32916C1.99546 0.269784 2.00024 0.209103 2.0183 0.151954C2.03635 0.094806 2.06719 0.0427716 2.10834 0L2.31021 0Z" fill="#0C485E"/>
</g>
<defs>
<clipPath id="clip0_3862_2318">
<rect width="16" height="16" fill="white"/>
</clipPath>
</defs>
</svg>
