<svg width="16" height="16" viewBox="0 0 16 16" fill="none" xmlns="http://www.w3.org/2000/svg">
<g clip-path="url(#clip0_3862_2245)">
<path d="M7.33821 16C6.88394 15.9502 6.4334 15.8707 5.98949 15.7622C4.17445 15.2873 2.58332 14.1915 1.49272 12.6655C1.4683 12.6438 1.44927 12.6168 1.43714 12.5865C1.42501 12.5562 1.42012 12.5235 1.42286 12.491C1.42559 12.4585 1.43588 12.4271 1.45289 12.3993C1.46991 12.3715 1.49319 12.348 1.52088 12.3308C2.35953 11.5081 3.18565 10.6729 4.0243 9.82831C4.1526 9.70006 4.15573 9.70319 4.23396 9.85959C4.51613 10.4522 4.93555 10.969 5.45745 11.3672C5.97934 11.7654 6.58868 12.0335 7.23494 12.1493C8.14114 12.3307 9.08222 12.1926 9.89795 11.7583C9.9462 11.7238 10.0061 11.7097 10.0647 11.7191C10.1233 11.7284 10.1758 11.7605 10.2109 11.8084C11.0245 12.631 11.8412 13.4443 12.658 14.2608C12.7894 14.3921 12.7894 14.3921 12.6361 14.5016C11.4884 15.3321 10.1384 15.8388 8.72761 15.9687C8.70214 15.9731 8.67704 15.9794 8.6525 15.9875L7.33821 16Z" fill="#0C485E"/>
<path d="M0 7.35104C0.0500684 6.98819 0.0938783 6.62221 0.178369 6.25622C0.318562 5.65211 0.528593 5.06636 0.804224 4.51077C0.863681 4.38565 0.907491 4.38565 1.00137 4.47949C1.91303 5.39288 2.82574 6.30523 3.73949 7.21654C3.77286 7.24485 3.79822 7.28141 3.81305 7.32257C3.82787 7.36374 3.83164 7.40807 3.82398 7.45114C3.75825 7.81523 3.75825 8.18813 3.82398 8.55222C3.8319 8.59804 3.82737 8.64514 3.81086 8.68861C3.79434 8.73208 3.76645 8.77032 3.7301 8.79933C2.81635 9.69708 1.91199 10.6136 1.0045 11.5176C0.876198 11.6459 0.873069 11.6459 0.791707 11.4863C0.37039 10.6318 0.10947 9.7073 0.0219049 8.75867C0.0160254 8.72707 0.00871627 8.69576 0 8.66483L0 7.35104Z" fill="#0C485E"/>
<path d="M11.7191 6.12451H15.2959C15.6683 6.12451 15.8216 6.24338 15.8811 6.60936C16.0961 7.77821 16.043 8.98059 15.726 10.126C15.4089 11.2714 14.836 12.33 14.0505 13.2221C13.9096 13.3879 13.7375 13.5349 13.603 13.7007C13.5404 13.7695 13.4934 13.7726 13.4246 13.7007L10.9525 11.2201C10.8742 11.1419 10.8774 11.0919 10.9525 11.0199C11.2461 10.7377 11.497 10.4142 11.6972 10.0596C11.788 9.9032 11.7849 9.89069 11.6065 9.89069H8.13612C7.71993 9.89069 7.55408 9.7249 7.55408 9.30261V6.69695C7.55408 6.2903 7.72306 6.12451 8.13612 6.12451H11.7191Z" fill="#0C485E"/>
<path d="M8.00467 -8.24247e-05C9.85369 -0.00211523 11.6451 0.643101 13.0678 1.82357C13.1321 1.8648 13.1858 1.92062 13.2244 1.98649C13.2631 2.05237 13.2856 2.12643 13.2901 2.20265C13.2947 2.27888 13.2812 2.3551 13.2507 2.42512C13.2203 2.49514 13.1737 2.55697 13.1148 2.60559C12.4764 3.24997 11.8359 3.89017 11.1934 4.52621C11.1511 4.58003 11.0981 4.62449 11.0378 4.65676C10.9774 4.68904 10.911 4.70845 10.8428 4.71374C10.7745 4.71903 10.7059 4.7101 10.6413 4.68751C10.5767 4.66493 10.5175 4.62917 10.4674 4.58252C9.7075 4.03142 8.78476 3.75075 7.84656 3.78534C6.90837 3.81993 6.00882 4.16777 5.29158 4.77333C4.84078 5.14706 4.47848 5.61605 4.23076 6.14654C4.1713 6.26854 4.13062 6.29044 4.02422 6.18408C3.18975 5.33534 2.3438 4.48972 1.48638 3.64723C1.38624 3.55026 1.39876 3.48457 1.48638 3.38447C2.16328 2.43069 3.03865 1.63463 4.05239 1.05094C4.98931 0.512167 6.02651 0.170474 7.10031 0.0468384C7.40022 0.00922413 7.70247 -0.00645781 8.00467 -8.24247e-05Z" fill="#0C485E"/>
</g>
<defs>
<clipPath id="clip0_3862_2245">
<rect width="16" height="16" fill="white"/>
</clipPath>
</defs>
</svg>
