<svg width="16" height="16" viewBox="0 0 16 16" fill="none" xmlns="http://www.w3.org/2000/svg">
<path fill-rule="evenodd" clip-rule="evenodd" d="M12.563 1.06667C11.2538 1.06667 10.1926 2.12792 10.1926 3.43704C10.1926 4.74616 11.2538 5.80741 12.563 5.80741C13.8721 5.80741 14.9333 4.74616 14.9333 3.43704C14.9333 2.12792 13.8721 1.06667 12.563 1.06667ZM10.3235 0.82963C10.925 0.312526 11.7075 0 12.563 0C14.4612 0 16 1.53881 16 3.43704C16 5.33526 14.4612 6.87407 12.563 6.87407C11.7075 6.87407 10.925 6.56155 10.3235 6.04445H2.60741C1.16738 6.04445 0 4.87707 0 3.43704C0 1.99701 1.16738 0.82963 2.60741 0.82963H10.3235ZM9.48977 4.97778C9.25698 4.51435 9.12593 3.991 9.12593 3.43704C9.12593 2.88308 9.25698 2.35973 9.48977 1.8963H2.60741C1.75648 1.8963 1.06667 2.58611 1.06667 3.43704C1.06667 4.28796 1.75648 4.97778 2.60741 4.97778H9.48977ZM0 12.563C0 10.6647 1.53881 9.12593 3.43704 9.12593C4.29249 9.12593 5.07495 9.43845 5.67647 9.95556H13.3926C14.8326 9.95556 16 11.1229 16 12.563C16 14.003 14.8326 15.1704 13.3926 15.1704H5.67647C5.07495 15.6875 4.29249 16 3.43704 16C1.53881 16 0 14.4612 0 12.563ZM6.51023 14.1037H13.3926C14.2435 14.1037 14.9333 13.4139 14.9333 12.563C14.9333 11.712 14.2435 11.0222 13.3926 11.0222H6.51023C6.74302 11.4857 6.87407 12.009 6.87407 12.563C6.87407 13.1169 6.74302 13.6403 6.51023 14.1037ZM3.43704 10.1926C2.12792 10.1926 1.06667 11.2538 1.06667 12.563C1.06667 13.8721 2.12792 14.9333 3.43704 14.9333C4.74616 14.9333 5.80741 13.8721 5.80741 12.563C5.80741 11.2538 4.74616 10.1926 3.43704 10.1926Z" fill="#0C485E"/>
</svg>
